<?xml version="1.0" standalone="no"?>
<!DOCTYPE svg PUBLIC "-//W3C//DTD SVG 20010904//EN"
 "http://www.w3.org/TR/2001/REC-SVG-20010904/DTD/svg10.dtd">
<svg version="1.0" xmlns="http://www.w3.org/2000/svg"
 width="960.000000pt" height="960.000000pt" viewBox="0 0 960.000000 960.000000"
 preserveAspectRatio="xMidYMid meet">
<metadata>
Created by potrace 1.11, written by Peter Selinger 2001-2013
</metadata>
<g transform="translate(0.000000,960.000000) scale(0.100000,-0.100000)"
fill="#000000" stroke="none">
<path d="M0 4800 l0 -4800 4800 0 4800 0 0 4800 0 4800 -4800 0 -4800 0 0
-4800z m5115 2547 c447 -65 755 -172 1040 -362 389 -259 629 -636 717 -1125
26 -147 36 -494 18 -649 -15 -136 -53 -311 -92 -426 -208 -609 -720 -1014
-1465 -1159 -238 -46 -380 -56 -808 -56 l-395 0 0 -595 c0 -327 -1 -595 -3
-595 -1 0 -140 56 -308 124 l-306 124 -291 -123 c-160 -68 -300 -126 -311
-130 l-21 -6 0 2494 c0 1372 3 2497 7 2501 4 4 480 5 1058 3 895 -3 1066 -6
1160 -20z"/>
<path d="M4268 6332 l-138 -3 0 -860 0 -861 408 4 c401 4 408 5 503 30 292 79
474 241 559 498 40 120 54 230 47 379 -13 296 -122 511 -331 653 -133 92 -310
147 -491 154 -179 6 -410 9 -557 6z"/>
<path d="M4881 4566 c12 -10 59 -15 59 -6 0 5 -14 10 -32 10 -17 0 -29 -2 -27
-4z"/>
</g>
</svg>
